<svg height="512" viewBox="0 0 64 64" width="512" xmlns="http://www.w3.org/2000/svg"><g id="Filled_outline" data-name="Filled outline"><path d="m48 29a12.525 12.525 0 0 0 -5-1c-4-8-7-11-17-11-14 0-21 8.85-21 21h43z" fill="#50b4f8"/><path d="m7 38h20a10.25 10.25 0 0 0 -20 0z" fill="#4f97d5"/><path d="m37 38h21c-.927-4.564-5.162-9-10-9a11.868 11.868 0 0 0 -11 9z" fill="#4f97d5"/><rect fill="#aabece" height="4" rx="2" width="58" x="3" y="38"/><circle cx="17" cy="40" fill="#394d5c" r="6"/><circle cx="48" cy="40" fill="#394d5c" r="6"/><path d="m39 28h-10v-7h2c4 0 5.667 2.583 7 5z" fill="#f4f4e6"/><path d="m28 28h2v10h-2z" fill="#2d75bb"/><path d="m25 27h18v2h-18z" fill="#2d75bb"/><g fill="#f4f4e6"><path d="m25 28h-14a13.792 13.792 0 0 1 12-7h2z"/><circle cx="17" cy="40" r="2"/><circle cx="48" cy="40" r="2"/></g><path d="m59 37h-.219c-1.256-4.408-5.431-8.864-10.565-8.988a13.423 13.423 0 0 0 -4.594-1c-4.137-8.112-7.555-11.012-17.622-11.012-13.287 0-21.624 8.1-21.967 21.171a2.843 2.843 0 0 0 -1.141.7 2.944 2.944 0 0 0 -.892 2.129 3 3 0 0 0 3 3h5.685a6.985 6.985 0 0 0 12.63 0h18.37a6.985 6.985 0 0 0 12.63 0h4.685a3.015 3.015 0 0 0 3-3 3 3 0 0 0 -3-3zm-15.546-7.983a13.086 13.086 0 0 0 -7.231 7.983h-6.223v-8h13c.135 0 .3.012.454.017zm-13.454-2.017v-5h1c3.376 0 4.771 2.03 6.1 4.447l.277.553zm-4-9c8.787 0 11.749 2.177 15.362 9h-1.744l-.743-1.483c-1.138-2.064-3.043-5.517-7.875-5.517h-2a1 1 0 0 0 -1 1v6h-2v-6a1 1 0 0 0 -1-1h-2a14.87 14.87 0 0 0 -12.868 7.5 1 1 0 0 0 .868 1.5h17v8h-.221a11.262 11.262 0 0 0 -21.558 0h-.183c.396-11.911 7.781-19 19.962-19zm-2 4v5h-11.132a12.848 12.848 0 0 1 10.132-5zm-13.92 19h-5.08a1 1 0 0 1 -1-1 .978.978 0 0 1 .306-.713.965.965 0 0 1 .694-.287h5.08a6.29 6.29 0 0 0 0 2zm6.92 4a5 5 0 1 1 5-5 5.006 5.006 0 0 1 -5 5zm0-12a7 7 0 0 0 -6.315 4h-2.365a9.279 9.279 0 0 1 17.36 0h-2.365a7 7 0 0 0 -6.315-4zm24.08 8h-17.16a6.29 6.29 0 0 0 0-2h17.16a6.29 6.29 0 0 0 0 2zm6.92 4a5 5 0 1 1 5-5 5.006 5.006 0 0 1 -5 5zm0-12a7 7 0 0 0 -6.315 4h-3.367a11.065 11.065 0 0 1 9.682-7c4.08 0 7.464 3.439 8.69 7h-2.375a7 7 0 0 0 -6.315-4zm11.694 7.713a.965.965 0 0 1 -.694.287h-4.08a6.29 6.29 0 0 0 0-2h4.08a1 1 0 0 1 1 1 .978.978 0 0 1 -.306.713z"/><path d="m17 37a3 3 0 1 0 3 3 3 3 0 0 0 -3-3zm0 4a1 1 0 1 1 1-1 1 1 0 0 1 -1 1z"/><path d="m48 37a3 3 0 1 0 3 3 3 3 0 0 0 -3-3zm0 4a1 1 0 1 1 1-1 1 1 0 0 1 -1 1z"/><path d="m32 31h4v2h-4z"/></g></svg>