<svg height="512" viewBox="0 0 62 62" width="512" xmlns="http://www.w3.org/2000/svg"><g id="096---Kayaking" fill="none"><g id="Icons" transform="translate(1 1)"><path id="Shape" d="m14.51 14.12-.39.39c-.9363329.9398121-2.2083629 1.4680865-3.535 1.4680865-1.32663713 0-2.59866708-.5282744-3.535-1.4680865-2.435-2.434-1.164-1.154-5.51-5.5-.37555409-.37513651-.58657331-.8841815-.58657331-1.415s.21101922-1.03986349.58657331-1.415l4.64-4.64c.37513651-.37555409.8841815-.58657331 1.415-.58657331s1.03986349.21101922 1.415.58657331c4.418 4.418 3.2 3.211 5.5 5.51.9398121.93633292 1.4680865 2.20836287 1.4680865 3.535 0 1.3266371-.5282744 2.5986671-1.4680865 3.535z" fill="#0377bc"/><path id="Shape" d="m12.64 12.24-.4.4c-1.9290245 1.9290074-5.04823902 1.9557054-7.01.06l-3.69-3.69c-.37555409-.37513651-.58657331-.8841815-.58657331-1.415s.21101922-1.03986349.58657331-1.415l4.64-4.64c.37513651-.37555409.8841815-.58657331 1.415-.58657331s1.03986349.21101922 1.415.58657331l3.63 3.63c1.9519097 1.95249926 1.9519097 5.1175007 0 7.07z" fill="#02a9f4"/><path id="Shape" d="m58.46 53.82-4.64 4.64c-.3751365.3755541-.8841815.5865733-1.415.5865733s-1.0398635-.2110192-1.415-.5865733c-1.879-1.879-.7-.715-5.5-5.51-.9400586-.9362017-1.4685034-2.2082808-1.4685034-3.535s.5284448-2.5987983 1.4685034-3.535l.39-.39c.936595-.9393195 2.2085267-1.4672533 3.535-1.4672533s2.598405.5279338 3.535 1.4672533l5.51 5.5c.3755541.3751365.5865733.8841815.5865733 1.415s-.2110192 1.0398635-.5865733 1.415z" fill="#0377bc"/><path id="Shape" d="m56.14 51.9-4.64 4.64c-.5022439.5019928-1.2348509.6965915-1.92.51l-4.09-4.1c-.9410462-.9356756-1.4701743-2.2079518-1.4701743-3.535s.5291281-2.5993244 1.4701743-3.535l.39-.39c1.5023503-1.5067125 3.794374-1.8960756 5.71-.97l4.55 4.55c.3755541.3751365.5865733.8841815.5865733 1.415s-.2110192 1.0398635-.5865733 1.415z" fill="#02a9f4"/><path id="Shape" d="m58.94 5.54c-1.3 8.22-5.3 24.82-17.14 36.63-9.548 9.53-23.213 14.843-36.39 16.78-1.23861581.2434241-2.51625165-.1568248-3.39459287-1.0634345-.87834123-.9066097-1.23793144-2.1962792-.95540713-3.4265655 2.112-13.251 7.567-27.072 17.14-36.63 9.542-9.53 23-14.754 36.39-16.78 1.2391338-.24619684 2.5185416.15315034 3.3976105 1.06051103.8790688.90736068 1.2377016 2.19877276.9523895 3.42948897z" fill="#f57c00"/><path id="Shape" d="m55.94 5.54c-1.3 8.22-5.3 24.82-17.14 36.63-9.288 9.273-22.544 14.585-35.35 16.62-1.77845907-.6295699-2.80514879-2.4896396-2.39-4.33 2.111-13.243 7.564-27.07 17.14-36.63 11.35-11.34 26.93-15.28 35.35-16.62 1.7806439.62699139 2.808495 2.48916523 2.39 4.33z" fill="#ff9801"/><path id="Shape" d="m34.29 40.05c-2.0310709 1.552099-4.3240321 2.7273686-6.77 3.47l-10.97-10.97c.7353801-2.4546577 1.8926735-4.7624767 3.42-6.82z" fill="#ffeb3a"/><path id="Shape" d="m27.52 43.52c-3.346.991-7.027.943-9.52-1.55-.2349845-.2387879-.4459937-.5000373-.63-.78-1.56-2.19-1.78-5.3-.82-8.64z" fill="#d84315"/><path id="Shape" d="m37.26 37.49c-.9242037.926818-1.9170219 1.7825805-2.97 2.56l-14.32-14.32c3.463-4.745 9.127-9.011 14.8-9.75 2.92-.38 5.5.27 7.23 2.05 4.01 4.13 1.89 12.85-4.74 19.46z" fill="#d84315"/><g fill="#ff5722"><path id="Shape" d="m34.26 37.49c-.43.43-.86.84-1.31 1.22l-12.98-12.98c3.463-4.745 9.127-9.011 14.8-9.75 8.719 1.253 8.112 12.914-.51 21.51z"/><path id="Shape" d="m21.4 54.85v.01c-1.89.71-3.74 1.31-5.5 1.82 0-.1.165.169-12.42-12.82.679-2.26 1.485-4.56 1.88-5.55.101 0-.182-.21 16.04 16.54z"/></g></g><g id="Outline" fill="#000"><path id="Shape" d="m42.544 11.58c3.6150585-1.4651789 7.366848-2.56726708 11.2-3.29-.7739412 3.8815119-1.9240356 7.678431-3.434 11.337-.2137202.5058759.0204999 1.0894469.5246533 1.3071994s1.0895758-.0118007 1.3113467-.5141994c1.7537721-4.2505369 3.0413027-8.6787704 3.84-13.207.0518797-.31561597-.0503479-.63700556-.2750288-.86465319s-.5447019-.33408207-.8609712-.28634681c-4.4857966.73725605-8.8757487 1.97082955-13.089 3.678-.3352179.13553574-.5711601.4414742-.6170662.8001296-.0459061.3586553.1053751.7141564.39565.9297521.2902748.2155957.6743246.2577007 1.0044162.1101183z"/><path id="Shape" d="m54.661 45.778c-2.1467348-2.1331419-5.5477636-2.3288352-7.925-.456l-2.361-2.361c11.233-11.81 15.2-27.7 16.551-36.266.3348847-1.54558888-.1270416-3.15615248-1.2302133-4.28929188-1.1031718-1.1331394-2.7007792-1.63805676-4.2547867-1.34470812-8.557 1.248-24.541 5.07-36.412 16.554l-2.351-2.351c1.8728352-2.3772364 1.6771419-5.77826521-.456-7.925l-5.507-5.507c-1.17149955-1.17114581-3.07050045-1.17114581-4.242 0l-4.641 4.641c-1.17114581 1.17149955-1.17114581 3.07050045 0 4.242l5.507 5.507c2.1388165 2.1508094 5.5536031 2.3472943 7.925.456l2.361 2.361c-11.233 11.81-15.196 27.702-16.551 36.266-.33488474 1.5455889.12704157 3.1561525 1.23021332 4.2892919 1.10317174 1.1331394 2.70077916 1.6380567 4.25478668 1.3447081 8.557-1.248 24.546-5.07 36.412-16.554l2.351 2.351c-1.8728352 2.3772364-1.6771419 5.7782652.456 7.925l5.507 5.507c1.1714996 1.1711458 3.0705004 1.1711458 4.242 0l4.641-4.641c1.1711458-1.1714996 1.1711458-3.0705004 0-4.242zm1.068-42.739c.924915-.20228177 1.8885486.08983074 2.5454681.77162431.6569195.68179356.9130331 1.65561351.6765319 2.57237569-1.317 8.317-5.151 23.75-15.99 35.164l-3.195-3.195c6.35-6.88 8.161-15.681 3.952-20.022-1.7016925-1.66056-4.0111552-2.5486202-6.387-2.456-4.4 0-9.46 2.357-13.7 6.347l-3.192-3.192c11.461-11.077 26.98-14.777 35.29-15.99zm-37.624 32.48 8.439 8.439c-5.995.997-9.371-2.639-8.439-8.439zm10.7 7.872-10.139-10.139c.5906326-1.7563927 1.4135998-3.4258692 2.447-4.964l12.631 12.63c-1.5293504 1.039763-3.1902602 1.8713949-4.939 2.473zm6.573-3.668-13.086-13.085c.42-.535.878-1.06 1.354-1.578l13.305 13.305c-.511.478-1.037.935-1.573 1.358zm-10.329-16.088c3.255-3.045 7.894-5.761 12.367-5.761 1.805729-.0696619 3.5621903.5977646 4.866 1.849 3.465 3.574 1.674 11.126-3.928 17.217zm-16.3-8.827-5.503-5.508c-.39038194-.39049985-.39038194-1.02350015 0-1.414l4.641-4.64c.39049985-.39038194 1.02350015-.39038194 1.414 0l5.507 5.507c1.3630202 1.3670062 1.5552682 3.512443.457 5.1l-3.724-3.726c-.2510745-.25995658-.6228779-.3642126-.9725073-.27269716-.3496295.09151544-.62267442.36456036-.71418986.71418986-.09151544.3496294.01274058.7214328.27269716.9725073l3.723 3.723c-1.5867086 1.0968411-3.7301875.905076-5.097-.456zm13.481 8.84c-.6940023.7511149-1.345995 1.5399826-1.953 2.363-.0496262.0576838-.094128.1195849-.133.185-1.5067853 2.1065605-2.6773923 4.4342806-3.47 6.9-.0797736.142623-.1233788.302623-.127.466-.955 3.607-.651 6.976 1.1 9.35l-3.247 3.243-6.879-7.092c2.6115002-6.8840112 6.5217583-13.20194 11.518-18.61zm-5.027 32.9-11.603-11.97c.344-1.128.713-2.274 1.134-3.449 5.52 5.693-10.148-10.467 13.887 14.322-1.161.408-2.296.764-3.414 1.095zm-10.932 2.413c-.92491502.2022818-1.88854862-.0898307-2.54546813-.7716243-.65691952-.6817936-.91303305-1.6556135-.67653187-2.5723757.4761191-2.9753659 1.114741-5.9224408 1.913-8.828l10.056 10.372c-2.8796315.7634415-5.79990579 1.3643896-8.747 1.8zm16.4-4.27-6.885-7.1 3.253-3.246c1.6209682 1.2117027 3.6040242 1.8397116 5.627 1.782 4.4 0 9.46-2.357 13.7-6.347l3.192 3.192c-5.4497511 5.1271173-11.8705061 9.1116983-18.884 11.719zm36.08-.578-4.641 4.641c-.3904999.3903819-1.0235001.3903819-1.414 0l-5.507-5.507c-1.3630202-1.3670062-1.5552682-3.512443-.457-5.1l4.47 4.469c.2510745.2599566.6228779.3642126.9725073.2726972.3496295-.0915155.6226744-.3645604.7141899-.7141899.0915154-.3496294-.0127406-.7214328-.2726972-.9725073l-4.466-4.466c1.5862255-1.1026785 3.7345564-.9105925 5.1.456l5.504 5.508c.3897159.3903851.3897159 1.0226149 0 1.413z"/></g></g></svg>