<svg height="512" viewBox="0 0 58 53" width="512" xmlns="http://www.w3.org/2000/svg"><g id="Page-1" fill="none" fill-rule="evenodd"><g id="031---Tent" fill-rule="nonzero"><path id="Shape" d="m40 6v-3.5c0-1.38071187-1.1192881-2.5-2.5-2.5s-2.5 1.11928813-2.5 2.5v3.5c-6.185304 3.21155645-13.0316037 4.9436703-20 5.06v-4.06c-.0081672-1.10116878-.8988312-1.99183278-2-2-1.1032019.0032948-1.9967052.89679813-2 2v6.49l-11 27.51s11.04 1 17 10h18v1c0 .5522847.4477153 1 1 1h3c.5522847 0 1-.4477153 1-1v-1h18z" fill="#bdc3c7"/><path id="Shape" d="m58 51-18-5.62v-39.38z" fill="#d25627"/><path id="Shape" d="m35 6v37.81l-13.44-4.2z" fill="#d25627"/><path id="Shape" d="m35 6-13.44 33.61-4.56 11.39c-5.96-9-17-10-17-10l11-27.51.47-1.18c.3074018-.7702624 1.0608713-1.2685887 1.89-1.25.45.01 1 .01 1.64 0 6.9683963-.1163297 13.814696-1.84844355 20-5.06z" fill="#f29c1f"/><path id="Shape" d="m58 51h-18v-5.62z" fill="#c03a2b"/><path id="Shape" d="m35 43.81v7.19h-18l4.56-11.39z" fill="#c03a2b"/><path id="Shape" d="m13.024 20.21c-.3318988-.0000772-.6421338-.1648221-.8280837-.4397393-.1859498-.2749172-.2233827-.6241814-.0999163-.9322607l1.66-4.151c.1502027-.3748962.5111692-.6226415.915-.628 4.3541576-.0618241 8.68243-.6815411 12.879-1.844.3440468-.0966403.7135161-.0023929.9692325.2472401.2557163.2496331.3588304.6167266.2705.963s-.3546857.6191196-.6987325.7157599c-4.1484173 1.1477946-8.4212377 1.7858297-12.724 1.9l-1.414 3.536c-.1505368.3815607-.5188175.6324991-.929.633z" fill="#f9eab0"/></g></g></svg>