<?xml version="1.0" encoding="iso-8859-1"?>
<!-- Generator: Adobe Illustrator 19.0.0, SVG Export Plug-In . SVG Version: 6.00 Build 0)  -->
<svg version="1.1" id="Capa_1" xmlns="http://www.w3.org/2000/svg" xmlns:xlink="http://www.w3.org/1999/xlink" x="0px" y="0px"
	 viewBox="0 0 512 512" style="enable-background:new 0 0 512 512;" xml:space="preserve">
<path style="fill:#A79A9E;" d="M288.063,7.515h-64.125c-24.309,0-44.086,19.777-44.086,44.086v24.047
	c0,6.64,5.384,12.023,12.023,12.023s12.023-5.384,12.023-12.023V51.601c0-11.05,8.99-20.039,20.039-20.039h64.125
	c11.05,0,20.039,8.99,20.039,20.039v24.047c0,6.64,5.384,12.023,12.023,12.023s12.023-5.384,12.023-12.023V51.601
	C332.149,27.291,312.372,7.515,288.063,7.515z"/>
<path style="fill:#CAC3C5;" d="M360.204,504.485H151.796c-35.415,0-64.125-28.71-64.125-64.125V159.812h336.658V440.36
	C424.329,475.775,395.619,504.485,360.204,504.485z"/>
<path style="fill:#B9AEB1;" d="M119.734,440.36V159.812H87.671V440.36c0,35.415,28.71,64.125,64.125,64.125h32.063
	C148.444,504.485,119.734,475.775,119.734,440.36z"/>
<rect x="47.593" y="79.656" style="fill:#847277;" width="416.814" height="80.157"/>
<rect x="47.593" y="79.656" style="fill:#725E63;" width="32.063" height="80.157"/>
<g>
	<path style="fill:#A79A9E;" d="M256,456.391L256,456.391c-13.281,0-24.047-10.766-24.047-24.047V223.937
		c0-13.281,10.766-24.047,24.047-24.047l0,0c13.281,0,24.047,10.766,24.047,24.047v208.407
		C280.047,445.625,269.281,456.391,256,456.391z"/>
	<path style="fill:#A79A9E;" d="M352.188,456.391L352.188,456.391c-13.281,0-24.047-10.766-24.047-24.047V223.937
		c0-13.281,10.766-24.047,24.047-24.047l0,0c13.281,0,24.047,10.766,24.047,24.047v208.407
		C376.235,445.625,365.469,456.391,352.188,456.391z"/>
	<path style="fill:#A79A9E;" d="M159.812,456.391L159.812,456.391c-13.281,0-24.047-10.766-24.047-24.047V223.937
		c0-13.281,10.766-24.047,24.047-24.047l0,0c13.281,0,24.047,10.766,24.047,24.047v208.407
		C183.859,445.625,173.093,456.391,159.812,456.391z"/>
</g>
<path d="M464.407,72.141H339.663v-20.54C339.663,23.148,316.515,0,288.063,0h-64.125c-28.453,0-51.601,23.148-51.601,51.601v20.54
	H47.593c-4.151,0-7.515,3.364-7.515,7.515v80.157c0,4.151,3.364,7.515,7.515,7.515h32.564V440.36c0,39.502,32.138,71.64,71.64,71.64
	h208.407c39.502,0,71.64-32.138,71.64-71.64V293.072c0-4.151-3.364-7.515-7.515-7.515s-7.515,3.364-7.515,7.515V440.36
	c0,31.215-25.396,56.611-56.611,56.611H151.796c-31.215,0-56.611-25.396-56.611-56.611V167.327h321.628v89.174
	c0,4.151,3.364,7.515,7.515,7.515s7.515-3.364,7.515-7.515v-89.174h32.564c4.151,0,7.515-3.364,7.515-7.515V79.656
	C471.922,75.504,468.558,72.141,464.407,72.141z M187.366,51.601c0-20.165,16.406-36.571,36.571-36.571h64.125
	c20.165,0,36.571,16.406,36.571,36.571v20.54h-9.018v-20.54c0-15.193-12.361-27.554-27.554-27.554h-64.125
	c-15.193,0-27.554,12.361-27.554,27.554v20.54h-9.018V51.601z M300.587,72.141h-89.174v-20.54c0-6.906,5.618-12.524,12.524-12.524
	h64.125c6.906,0,12.524,5.618,12.524,12.524V72.141z M456.892,152.297H55.108V87.17h401.785V152.297z"/>
<path d="M224.438,223.937v208.407c0,17.403,14.159,31.562,31.562,31.562s31.562-14.159,31.562-31.562V223.937
	c0-17.403-14.159-31.562-31.562-31.562S224.438,206.534,224.438,223.937z M272.532,223.937v208.407
	c0,9.117-7.415,16.532-16.532,16.532c-9.117,0-16.532-7.415-16.532-16.532V223.937c0-9.117,7.415-16.532,16.532-16.532
	C265.117,207.405,272.532,214.821,272.532,223.937z"/>
<path d="M320.626,223.937v208.407c0,17.403,14.159,31.562,31.562,31.562s31.562-14.159,31.562-31.562V223.937
	c0-17.403-14.159-31.562-31.562-31.562S320.626,206.534,320.626,223.937z M368.72,223.937v208.407
	c0,9.117-7.415,16.532-16.532,16.532c-9.117,0-16.532-7.415-16.532-16.532V223.937c0-9.117,7.415-16.532,16.532-16.532
	C361.305,207.405,368.72,214.821,368.72,223.937z"/>
<path d="M128.25,223.937v208.407c0,17.403,14.159,31.562,31.562,31.562s31.562-14.159,31.562-31.562V223.937
	c0-17.403-14.159-31.562-31.562-31.562S128.25,206.534,128.25,223.937z M176.344,223.937v208.407
	c0,9.117-7.415,16.532-16.532,16.532s-16.532-7.415-16.532-16.532V223.937c0-9.117,7.415-16.532,16.532-16.532
	S176.344,214.821,176.344,223.937z"/>
<g>
</g>
<g>
</g>
<g>
</g>
<g>
</g>
<g>
</g>
<g>
</g>
<g>
</g>
<g>
</g>
<g>
</g>
<g>
</g>
<g>
</g>
<g>
</g>
<g>
</g>
<g>
</g>
<g>
</g>
</svg>
